<svg xmlns="http://www.w3.org/2000/svg" width="160" height="102" viewBox="0 0 160 102" version="1.1"><path d="" stroke="none" fill="#f01c24" fill-rule="evenodd"/><path d="M 91.500 2.663 C 83.759 4.494, 80.967 7.038, 60.462 30.940 C 44.781 49.218, 32.671 63.238, 12.250 86.752 C 5.512 94.511, -0 101.115, -0 101.429 C 0 103.024, 5.295 101.068, 28.831 90.776 L 54.500 79.552 66.294 69.526 C 84.801 53.794, 86.278 53.561, 96.750 64.734 C 100.737 68.988, 104 72.814, 104 73.235 C 104 73.656, 101.635 74, 98.745 74 C 93.713 74, 93.343 73.811, 89.995 69.538 C 87.892 66.852, 85.668 65.061, 84.411 65.038 C 81.993 64.994, 62 81.603, 62 83.656 C 62 84.747, 66.906 85, 88.079 85 C 116.344 85, 114.999 84.792, 130.500 91.551 C 151.162 100.560, 159 103.307, 159 101.540 C 159 101.288, 157.200 97.723, 155 93.619 C 152.800 89.516, 151 85.897, 151 85.579 C 151 85.261, 153.025 85, 155.500 85 L 160 85 160 80.109 L 160 75.219 152.416 74.836 C 146.201 74.522, 144.622 74.100, 143.666 72.496 C 143.025 71.420, 141.005 67.831, 139.178 64.520 C 137.351 61.209, 134.822 56.700, 133.560 54.500 C 132.297 52.300, 129.567 47.350, 127.493 43.500 C 109.942 10.916, 108.699 8.839, 105 5.932 C 101.540 3.213, 95.429 1.733, 91.500 2.663" stroke="none" fill="#ec1c24" fill-rule="evenodd"/></svg>