<?xml version="1.0" encoding="UTF-8" standalone="no"?>
<!-- Generator: Adobe Illustrator 17.1.0, SVG Export Plug-In . SVG Version: 6.00 Build 0)  -->

<svg
   version="1.1"
   id="Capa_1"
   x="0px"
   y="0px"
   viewBox="0 0 487 487"
   style="enable-background:new 0 0 487 487;"
   xml:space="preserve"
   sodipodi:docname="antenna-red.svg"
   inkscape:version="1.2.1 (9c6d41e410, 2022-07-14)"
   xmlns:inkscape="http://www.inkscape.org/namespaces/inkscape"
   xmlns:sodipodi="http://sodipodi.sourceforge.net/DTD/sodipodi-0.dtd"
   xmlns="http://www.w3.org/2000/svg"
   xmlns:svg="http://www.w3.org/2000/svg"><defs
   id="defs97">
	
	
	
	
</defs><sodipodi:namedview
   id="namedview95"
   pagecolor="#ffffff"
   bordercolor="#000000"
   borderopacity="0.25"
   inkscape:showpageshadow="2"
   inkscape:pageopacity="0.0"
   inkscape:pagecheckerboard="0"
   inkscape:deskcolor="#d1d1d1"
   showgrid="false"
   inkscape:zoom="1.1129363"
   inkscape:cx="243.5"
   inkscape:cy="243.5"
   inkscape:window-width="1366"
   inkscape:window-height="745"
   inkscape:window-x="-8"
   inkscape:window-y="-8"
   inkscape:window-maximized="1"
   inkscape:current-layer="Capa_1" />
<path
   d="M 299.5,432 H 274.091 C 271.307,420.646 262.354,411.694 251,408.909 V 206.091 c 13.759,-3.374 24,-15.806 24,-30.591 0,-17.369 -14.131,-31.5 -31.5,-31.5 -17.369,0 -31.5,14.131 -31.5,31.5 0,14.785 10.241,27.216 24,30.591 V 408.91 c -11.354,2.784 -20.306,11.737 -23.091,23.091 H 187.5 c -12.958,0 -23.5,10.542 -23.5,23.5 v 24 c 0,4.142 3.358,7.5 7.5,7.5 h 144 c 4.142,0 7.5,-3.358 7.5,-7.5 v -24 C 323,442.542 312.458,432 299.5,432 Z M 227,175.5 c 0,-9.098 7.402,-16.5 16.5,-16.5 9.098,0 16.5,7.402 16.5,16.5 0,9.098 -7.402,16.5 -16.5,16.5 -9.098,0 -16.5,-7.402 -16.5,-16.5 z M 243.5,423 c 6.396,0 11.942,3.666 14.679,9 h -29.357 c 2.736,-5.334 8.282,-9 14.678,-9 z M 308,472 H 179 v -16.5 c 0,-4.687 3.813,-8.5 8.5,-8.5 h 112 c 4.687,0 8.5,3.813 8.5,8.5 z"
   id="path54"
   style="fill:#ff0000" /><path
   d="M 243.5,0 C 146.729,0 68,78.729 68,175.5 c 0,38.558 12.278,75.14 35.506,105.791 22.46,29.637 54.37,51.78 89.853,62.348 3.968,1.181 8.146,-1.078 9.329,-5.047 1.182,-3.97 -1.077,-8.146 -5.047,-9.329 C 165.193,319.598 136.008,299.345 115.46,272.231 94.225,244.209 83,210.76 83,175.5 83,87 155,15 243.5,15 332,15 404,87 404,175.5 c 0,35.26 -11.225,68.709 -32.46,96.731 -20.547,27.113 -49.733,47.367 -82.181,57.032 -3.97,1.183 -6.229,5.359 -5.047,9.329 0.97,3.255 3.953,5.361 7.185,5.361 0.708,0 1.43,-0.102 2.144,-0.314 35.483,-10.568 67.393,-32.711 89.853,-62.348 C 406.722,250.64 419,214.058 419,175.5 419,78.729 340.271,0 243.5,0 Z"
   id="path56"
   style="fill:#ff0000" /><path
   d="m 243.5,111 c 35.565,0 64.5,28.935 64.5,64.5 0,18.23 -7.839,35.716 -21.507,47.975 -3.084,2.766 -3.342,7.507 -0.576,10.591 1.481,1.652 3.529,2.493 5.586,2.493 1.783,0 3.573,-0.632 5.005,-1.917 C 313.344,219.542 323,197.985 323,175.5 323,131.664 287.336,96 243.5,96 199.664,96 164,131.664 164,175.5 c 0,22.485 9.656,44.042 26.493,59.142 3.084,2.766 7.825,2.508 10.591,-0.576 2.766,-3.083 2.508,-7.825 -0.576,-10.591 C 186.839,211.216 179,193.73 179,175.5 179,139.935 207.935,111 243.5,111 Z"
   id="path58"
   style="fill:#ff0000" /><path
   d="m 291.504,292.95 c 1.003,0 2.023,-0.203 3.001,-0.63 C 340.974,272.002 371,226.147 371,175.5 371,105.196 313.804,48 243.5,48 173.196,48 116,105.196 116,175.5 c 0,50.647 30.026,96.502 76.495,116.82 3.795,1.657 8.217,-0.072 9.877,-3.868 1.659,-3.795 -0.072,-8.217 -3.867,-9.876 C 157.497,260.646 131,220.187 131,175.5 131,113.467 181.467,63 243.5,63 305.533,63 356,113.467 356,175.5 c 0,44.687 -26.497,85.146 -67.505,103.077 -3.795,1.659 -5.526,6.081 -3.867,9.876 1.232,2.818 3.986,4.497 6.876,4.497 z"
   id="path60"
   style="fill:#ff0000" />
<g
   id="g64">
</g>
<g
   id="g66">
</g>
<g
   id="g68">
</g>
<g
   id="g70">
</g>
<g
   id="g72">
</g>
<g
   id="g74">
</g>
<g
   id="g76">
</g>
<g
   id="g78">
</g>
<g
   id="g80">
</g>
<g
   id="g82">
</g>
<g
   id="g84">
</g>
<g
   id="g86">
</g>
<g
   id="g88">
</g>
<g
   id="g90">
</g>
<g
   id="g92">
</g>
</svg>
