<?xml version="1.0" encoding="UTF-8"?>
<!DOCTYPE svg PUBLIC "-//W3C//DTD SVG 1.1//EN" "http://www.w3.org/Graphics/SVG/1.1/DTD/svg11.dtd">
<!-- Creator: CorelDRAW X7 -->
<svg xmlns="http://www.w3.org/2000/svg" xml:space="preserve" width="410mm" height="34mm" version="1.1" style="shape-rendering:geometricPrecision; text-rendering:geometricPrecision; image-rendering:optimizeQuality; fill-rule:evenodd; clip-rule:evenodd"
viewBox="0 0 41000 3400"
 xmlns:xlink="http://www.w3.org/1999/xlink">
 <defs>
  <style type="text/css">
   <![CDATA[
    .str0 {stroke:white;stroke-width:150}
    .fil0 {fill:#326428}
    .fil1 {fill:black;fill-rule:nonzero}
   ]]>
  </style>
 </defs>
 <g id="Слой_x0020_1">
  <metadata id="CorelCorpID_0Corel-Layer"/>
  <rect class="fil0 str0" x="154" y="170" width="40692" height="3060"/>
  <path class="fil1" d="M14515 2253l592 -1543 225 0 628 1543 -233 0 -178 -467 -650 0 -167 467 -217 0zm444 -633l526 0 -161 -428c-49,-130 -85,-237 -111,-322 -21,100 -49,199 -85,297l-169 453zm1154 633l0 -1543 579 0c118,0 212,16 284,47 71,31 127,79 167,144 41,65 61,133 61,204 0,66 -18,128 -54,186 -35,58 -89,105 -162,141 94,28 166,74 216,140 50,66 75,144 75,234 0,72 -15,140 -46,202 -30,62 -68,110 -113,143 -45,34 -101,59 -169,77 -68,17 -151,25 -249,25l-589 0zm205 -894l334 0c90,0 155,-6 194,-18 52,-15 91,-41 118,-77 26,-36 39,-81 39,-135 0,-52 -12,-97 -37,-136 -24,-39 -59,-66 -105,-80 -46,-14 -124,-22 -235,-22l-308 0 0 468zm0 713l384 0c66,0 113,-2 140,-7 46,-8 86,-22 117,-42 32,-20 58,-49 78,-86 21,-38 31,-82 31,-131 0,-58 -15,-107 -45,-150 -29,-43 -70,-73 -123,-90 -52,-17 -127,-26 -225,-26l-357 0 0 532zm1246 -1362l185 0 0 1222 821 -1222 203 0 0 1543 -186 0 0 -1218 -819 1218 -204 0 0 -1543zm1482 792c0,-255 69,-456 206,-601 138,-144 316,-216 533,-216 143,0 271,34 386,102 114,67 201,162 261,284 60,121 90,259 90,413 0,157 -31,297 -95,420 -63,124 -152,217 -268,280 -116,64 -241,95 -375,95 -145,0 -275,-35 -390,-105 -114,-70 -201,-165 -260,-287 -59,-121 -88,-249 -88,-385zm211 4c0,186 50,332 150,439 100,106 225,160 376,160 154,0 280,-54 379,-162 99,-108 149,-261 149,-459 0,-125 -21,-235 -64,-328 -42,-94 -104,-166 -186,-218 -81,-51 -173,-77 -275,-77 -144,0 -268,50 -373,149 -104,99 -156,264 -156,496zm1536 747l0 -1543 205 0 0 636 798 0 0 -636 204 0 0 1543 -204 0 0 -726 -798 0 0 726 -205 0zm1553 -1543l185 0 0 1222 821 -1222 203 0 0 1543 -186 0 0 -1218 -819 1218 -204 0 0 -1543zm1549 0l204 0 0 677c93,0 159,-18 197,-55 38,-36 86,-123 145,-261 43,-101 78,-173 106,-214 28,-42 67,-78 119,-106 51,-28 107,-43 169,-43 79,0 120,1 124,2l0 177c-7,0 -20,0 -41,-1 -22,-1 -36,-1 -41,-1 -65,0 -113,16 -145,47 -32,32 -69,99 -111,203 -51,130 -95,213 -131,247 -36,34 -79,61 -128,82 99,27 198,119 295,276l317 513 -253 0 -259 -418c-71,-116 -130,-195 -178,-238 -47,-44 -109,-66 -185,-66l0 722 -204 0 0 -1543zm1082 1543l592 -1543 224 0 628 1543 -232 0 -179 -467 -649 0 -168 467 -216 0zm444 -633l525 0 -160 -428c-49,-130 -86,-237 -111,-322 -21,100 -50,199 -85,297l-169 453z"/>
 </g>
</svg>
