<?xml version="1.0" encoding="UTF-8"?>
<!DOCTYPE svg PUBLIC "-//W3C//DTD SVG 1.1//EN" "http://www.w3.org/Graphics/SVG/1.1/DTD/svg11.dtd">
<!-- Creator: CorelDRAW X7 -->
<svg xmlns="http://www.w3.org/2000/svg" xml:space="preserve" width="115mm" height="115mm" version="1.1" style="shape-rendering:geometricPrecision; text-rendering:geometricPrecision; image-rendering:optimizeQuality; fill-rule:evenodd; clip-rule:evenodd"
viewBox="0 0 11500 11500"
 xmlns:xlink="http://www.w3.org/1999/xlink">
 <defs>
  <style type="text/css">
   <![CDATA[
    .str0 {stroke:white;stroke-width:250;stroke-opacity:0.149020}
    .fil0 {fill:none}
    .fil5 {fill:none}
    .fil3 {fill:#0081D8}
    .fil4 {fill:#CE000C}
    .fil2 {fill:white}
    .fil1 {fill:white;fill-opacity:0.149020}
   ]]>
  </style>
 </defs>
 <g id="Слой_x0020_1">
  <metadata id="CorelCorpID_0Corel-Layer"/>
  <rect class="fil0" width="11500" height="11500"/>
  <path class="fil1 str0" d="M5750 421c2943,0 5329,2386 5329,5329 0,2943 -2386,5329 -5329,5329 -2943,0 -5329,-2386 -5329,-5329 0,-2943 2386,-5329 5329,-5329z"/>
  <circle class="fil2" cx="5750" cy="5750" r="362"/>
  <polygon class="fil3" points="6297,5027 5203,5027 5750,874 "/>
  <polygon class="fil4" points="5203,6473 6297,6473 5750,10626 "/>
  <path class="fil5 str0" d="M5750 421c2943,0 5329,2386 5329,5329 0,2943 -2386,5329 -5329,5329 -2943,0 -5329,-2386 -5329,-5329 0,-2943 2386,-5329 5329,-5329z"/>
 </g>
</svg>
