<?xml version="1.0" standalone="no"?>
<!DOCTYPE svg PUBLIC "-//W3C//DTD SVG 20010904//EN"
 "http://www.w3.org/TR/2001/REC-SVG-20010904/DTD/svg10.dtd">
<svg version="1.0" xmlns="http://www.w3.org/2000/svg"
 width="659.000000pt" height="170.000000pt" viewBox="0 0 659.000000 170.000000"
 preserveAspectRatio="xMidYMid meet">

<g transform="translate(0.000000,170.000000) scale(0.100000,-0.100000)"
fill="#000000" stroke="none">
<path d="M50 845 l0 -75 820 0 820 0 0 -300 0 -300 70 0 70 0 0 375 0 375
-890 0 -890 0 0 -75z"/>
<path d="M3222 848 l3 -73 73 -3 72 -3 0 76 0 75 -75 0 -76 0 3 -72z"/>
<path d="M4760 545 l0 -375 75 0 75 0 0 300 0 300 818 2 817 3 3 73 3 72 -896
0 -895 0 0 -375z"/>
</g>
</svg>
